<svg width="30.000000" height="30.000000" viewBox="0 0 30 30" fill="none" xmlns="http://www.w3.org/2000/svg" xmlns:xlink="http://www.w3.org/1999/xlink">
	<desc>
			Created with Pixso.
	</desc>
	<defs/>
	<path id="Vector" d="M9.88038 9.05713L1.16933 10.3789L1.01504 10.4116C0.781479 10.4766 0.568558 10.6052 0.398018 10.7844C0.227478 10.9636 0.105438 11.187 0.0443497 11.4316C-0.0167389 11.6763 -0.0146866 11.9336 0.0503082 12.1772C0.115303 12.4209 0.240898 12.6421 0.414276 12.8181L6.72501 19.2473L5.23676 28.3286L5.21901 28.4858C5.20471 28.7388 5.25488 28.991 5.36436 29.2168C5.47383 29.4426 5.6387 29.634 5.84208 29.7712C6.04545 29.9084 6.28002 29.9868 6.52177 29.9978C6.76353 30.009 7.00377 29.9529 7.21791 29.835L15.0087 25.5479L22.7817 29.835L22.9183 29.9006C23.1436 29.9934 23.3886 30.022 23.6279 29.9832C23.8673 29.9443 24.0925 29.8394 24.2804 29.6794C24.4683 29.5195 24.6121 29.3101 24.6971 29.0728C24.7822 28.8352 24.8053 28.5786 24.7643 28.3286L23.2746 19.2473L29.5881 12.8167L29.6946 12.6953C29.8467 12.4993 29.9465 12.2644 29.9837 12.0149C30.0209 11.7651 29.9942 11.5098 29.9064 11.2744C29.8185 11.0391 29.6727 10.8325 29.4836 10.6753C29.2946 10.5183 29.0692 10.4165 28.8303 10.3804L20.1193 9.05713L16.2253 0.797363C16.1126 0.558105 15.9381 0.356445 15.7217 0.215576C15.5052 0.074707 15.2554 0 15.0005 0C14.7456 0 14.4958 0.074707 14.2793 0.215576C14.0629 0.356445 13.8885 0.558105 13.7758 0.797363L9.88038 9.05713Z" fill="#3EB589" fill-opacity="1.000000" fill-rule="nonzero"/>
	<path id="Vector" d="M1.16933 10.3789L1.01504 10.4116C0.781479 10.4766 0.568558 10.6052 0.398018 10.7844C0.227478 10.9636 0.105438 11.187 0.0443497 11.4316C-0.0167389 11.6763 -0.0146866 11.9336 0.0503082 12.1772C0.115303 12.4209 0.240898 12.6421 0.414276 12.8181L6.72501 19.2473L5.23676 28.3286L5.21901 28.4858C5.20471 28.7388 5.25488 28.991 5.36436 29.2168C5.47383 29.4426 5.6387 29.634 5.84208 29.7712C6.04545 29.9084 6.28002 29.9868 6.52177 29.9978C6.76353 30.009 7.00377 29.9529 7.21791 29.835L15.0087 25.5479L22.7818 29.835L22.9183 29.9006C23.1437 29.9934 23.3886 30.022 23.6279 29.9832C23.8673 29.9443 24.0925 29.8394 24.2804 29.6794C24.4683 29.5195 24.6121 29.3101 24.6971 29.0728C24.7822 28.8352 24.8053 28.5786 24.7643 28.3286L23.2746 19.2473L29.5881 12.8167L29.6946 12.6953C29.8467 12.4993 29.9465 12.2644 29.9837 12.0149C30.0209 11.7651 29.9942 11.5098 29.9064 11.2744C29.8185 11.0391 29.6727 10.8325 29.4836 10.6753C29.2946 10.5183 29.0692 10.4165 28.8303 10.3804L20.1193 9.05713L16.2253 0.797363C16.1126 0.558105 15.9381 0.356445 15.7217 0.215576C15.5052 0.074707 15.2554 0 15.0005 0C14.7456 0 14.4958 0.074707 14.2793 0.215576C14.0629 0.356445 13.8885 0.558105 13.7758 0.797363L9.88038 9.05713L1.16933 10.3789Z" stroke="#000000" stroke-opacity="1.000000" stroke-width="0.000000" stroke-linejoin="round"/>
</svg>
