<svg width="20" height="20" viewBox="0 0 20 20" fill="none" xmlns="http://www.w3.org/2000/svg">
<path id="Vector" d="M6.58692 6.03802L0.779551 6.91924L0.676693 6.94115C0.520986 6.98442 0.379038 7.07015 0.265346 7.18961C0.151654 7.30907 0.0702908 7.45797 0.0295652 7.6211C-0.0111605 7.78423 -0.00978921 7.95576 0.0335388 8.11816C0.0768668 8.28055 0.160599 8.42801 0.276185 8.54546L4.48334 12.8315L3.49117 18.8858L3.47934 18.9906C3.46981 19.1591 3.50325 19.3273 3.57624 19.4779C3.64922 19.6284 3.75914 19.756 3.89472 19.8475C4.0303 19.939 4.18668 19.9912 4.34785 19.9986C4.50902 20.0061 4.66918 19.9685 4.81194 19.8899L10.0058 17.0319L15.1878 19.8899L15.2789 19.9337C15.4291 19.9957 15.5924 20.0146 15.752 19.9887C15.9115 19.9628 16.0617 19.893 16.1869 19.7863C16.3122 19.6796 16.4081 19.54 16.4648 19.3818C16.5214 19.2235 16.5369 19.0523 16.5095 18.8858L15.5164 12.8315L19.7254 8.5445L19.7964 8.46352C19.8978 8.33279 19.9643 8.17625 19.9891 8.00986C20.0139 7.84347 19.9961 7.67317 19.9376 7.51631C19.879 7.35946 19.7818 7.22165 19.6558 7.11693C19.5297 7.01222 19.3795 6.94433 19.2202 6.92019L13.4129 6.03802L10.8168 0.531563C10.7417 0.372023 10.6254 0.237677 10.4811 0.143734C10.3368 0.0497899 10.1703 0 10.0003 0C9.8304 0 9.66386 0.0497899 9.51956 0.143734C9.37526 0.237677 9.25897 0.372023 9.18385 0.531563L6.58692 6.03802Z" fill="#3EB589"/>
</svg>
